<svg width="118" height="145" viewBox="0 0 118 145" fill="none" xmlns="http://www.w3.org/2000/svg">
<g filter="url(#filter0_dd_1_426)">
<g clip-path="url(#clip0_1_426)">
<path d="M47.069 84.5187C53.7304 84.5187 59.1367 78.8538 59.1367 71.8739V59.2291H47.069C40.4077 59.2291 35.0014 64.8939 35.0014 71.8739C35.0014 78.8538 40.4077 84.5187 47.069 84.5187Z" fill="#0ACF83"/>
<path d="M35.0014 46.586C35.0014 39.6061 40.4077 33.9412 47.069 33.9412H59.1367V59.2308H47.069C40.4077 59.2308 35.0014 53.566 35.0014 46.586Z" fill="#A259FF"/>
<path d="M35.007 21.2982C35.007 14.3183 40.4133 8.65338 47.0746 8.65338H59.1422V33.943H47.0746C40.4133 33.943 35.007 28.2781 35.007 21.2982Z" fill="#F24E1E"/>
<path d="M59.134 8.65341H71.2016C77.863 8.65341 83.2693 14.3183 83.2693 21.2982C83.2693 28.2782 77.863 33.943 71.2016 33.943H59.134V8.65341Z" fill="#FF7262"/>
<path d="M83.2693 46.586C83.2693 53.566 77.863 59.2308 71.2016 59.2308C64.5403 59.2308 59.134 53.566 59.134 46.586C59.134 39.6061 64.5403 33.9412 71.2016 33.9412C77.863 33.9412 83.2693 39.6061 83.2693 46.586Z" fill="#1ABCFE"/>
</g>
</g>
<defs>
<filter id="filter0_dd_1_426" x="0.749657" y="0.0923233" width="116.77" height="144.359" filterUnits="userSpaceOnUse" color-interpolation-filters="sRGB">
<feFlood flood-opacity="0" result="BackgroundImageFix"/>
<feColorMatrix in="SourceAlpha" type="matrix" values="0 0 0 0 0 0 0 0 0 0 0 0 0 0 0 0 0 0 127 0" result="hardAlpha"/>
<feOffset dy="25.6837"/>
<feGaussianBlur stdDeviation="17.1225"/>
<feColorMatrix type="matrix" values="0 0 0 0 0.196487 0 0 0 0 0.196487 0 0 0 0 0.279476 0 0 0 0.08 0"/>
<feBlend mode="multiply" in2="BackgroundImageFix" result="effect1_dropShadow_1_426"/>
<feColorMatrix in="SourceAlpha" type="matrix" values="0 0 0 0 0 0 0 0 0 0 0 0 0 0 0 0 0 0 127 0" result="hardAlpha"/>
<feOffset dy="17.1225"/>
<feGaussianBlur stdDeviation="8.56124"/>
<feColorMatrix type="matrix" values="0 0 0 0 0.196487 0 0 0 0 0.196487 0 0 0 0 0.279476 0 0 0 0.08 0"/>
<feBlend mode="multiply" in2="effect1_dropShadow_1_426" result="effect2_dropShadow_1_426"/>
<feBlend mode="normal" in="SourceGraphic" in2="effect2_dropShadow_1_426" result="shape"/>
</filter>
<clipPath id="clip0_1_426">
<rect width="48.2802" height="75.8689" fill="white" transform="translate(34.9946 8.65356)"/>
</clipPath>
</defs>
</svg>
